# xmcd
#
# Track frame offsets:
# 150
# 18146
# 33221
# 50954
# 69281
# 83166
# 98893
# 116746
# 132879
# 153153
# 169160
# 187495
# 205522
# 219921
#
# Disc length: 3147 seconds
#
#
# Revision: 0
# Processed by: cddbd v1.5.2PL0 Copyright (c) Steve Scherf et al.
# Submitted via: FreeRIP 2.951 
#
DISCID=ba0c490e
DTITLE=Rhett Akins - FRIDAY NIGHT IN DIXIE
DYEAR=2002
DGENRE=Country
TTITLE0=Highway Sunrise
TTITLE1=That Girl
TTITLE2=She Was
TTITLE3=In Your Love
TTITLE4=You Rock Me
TTITLE5=Friday Night In Dixie
TTITLE6=White Lies and Blue Eyes
TTITLE7=Trouble With a Woman
TTITLE8=Livin' Not Lovin' You
TTITLE9=Right Back Atcha
TTITLE10=I Wonder What You're Doin' Tonight
TTITLE11=Must Be Livin' Right
TTITLE12=Where The Blacktop Ends
TTITLE13=That Ain't My Truck
EXTD=
EXTT0=
EXTT1=
EXTT2=
EXTT3=
EXTT4=
EXTT5=
EXTT6=
EXTT7=
EXTT8=
EXTT9=
EXTT10=
EXTT11=
EXTT12=
EXTT13=
PLAYORDER=
